<svg xmlns="http://www.w3.org/2000/svg" xmlns:xlink="http://www.w3.org/1999/xlink" width="500" zoomAndPan="magnify" viewBox="0 0 375 374.999991" height="500" preserveAspectRatio="xMidYMid meet" version="1.0"><defs><g/><clipPath id="69fbaa1966"><path d="M 72.929688 97.285156 L 302.046875 97.285156 L 302.046875 192.054688 L 72.929688 192.054688 Z M 72.929688 97.285156 " clip-rule="nonzero"/></clipPath></defs><g clip-path="url(#69fbaa1966)"><path fill="#333340" d="M 298.179688 175.867188 L 195.703125 175.867188 C 193.558594 175.867188 191.820312 174.128906 191.820312 171.984375 C 191.820312 169.839844 193.558594 168.101562 195.703125 168.101562 L 270.53125 168.101562 C 272.671875 168.101562 274.410156 166.363281 274.410156 164.21875 C 274.410156 162.078125 272.671875 160.339844 270.53125 160.339844 L 262.441406 160.339844 C 260.980469 150.085938 254.914062 140.828125 243.6875 138.667969 C 243.984375 136.816406 244.140625 134.917969 244.140625 132.984375 C 244.140625 113.296875 228.179688 97.335938 208.492188 97.335938 C 191.371094 97.335938 177.074219 109.40625 173.632812 125.5 L 173.632812 125.496094 C 168.492188 122.621094 162.566406 120.984375 156.253906 120.984375 C 142.203125 120.984375 130.054688 129.113281 124.246094 140.925781 L 76.820312 140.925781 C 74.675781 140.925781 72.9375 142.664062 72.9375 144.808594 C 72.9375 146.949219 74.675781 148.691406 76.820312 148.691406 L 151.644531 148.691406 C 153.789062 148.691406 155.527344 150.429688 155.527344 152.574219 C 155.527344 154.714844 153.789062 156.453125 151.644531 156.453125 L 104.464844 156.453125 C 102.320312 156.453125 100.585938 158.191406 100.585938 160.339844 C 100.585938 162.480469 102.320312 164.21875 104.464844 164.21875 L 121.417969 164.21875 C 124.898438 180.261719 139.171875 192.277344 156.253906 192.277344 L 244.542969 192.277344 C 250.066406 191.28125 254.40625 188.050781 257.46875 183.632812 L 298.179688 183.632812 C 300.320312 183.632812 302.058594 181.894531 302.058594 179.75 C 302.058594 177.605469 300.320312 175.867188 298.179688 175.867188 " fill-opacity="1" fill-rule="nonzero"/></g><g fill="#333340" fill-opacity="1"><g transform="translate(19.990993, 244.633515)"><g><path d="M 28.851562 -10.304688 C 28.699219 -6.828125 25.476562 -1.597656 16.488281 -1.597656 C 7.496094 -1.597656 4.996094 -11.980469 4.996094 -11.980469 L 1.054688 -9.066406 C 1.054688 -9.066406 4.84375 0 16.410156 0 C 29.238281 0 32.460938 -5.925781 32.640625 -10.355469 C 33.128906 -22.128906 5.746094 -19.167969 6.132812 -28.183594 C 6.3125 -32.769531 10.125 -35.652344 16.898438 -35.652344 C 24.960938 -35.652344 26.714844 -29.960938 26.714844 -29.960938 L 29.652344 -33.386719 C 29.652344 -33.386719 24.320312 -36.941406 16.949219 -36.941406 C 9.582031 -36.941406 3.503906 -33.566406 3.246094 -27.796875 C 2.78125 -16.566406 29.238281 -19.992188 28.851562 -10.304688 Z M 28.851562 -10.304688 "/></g></g></g><g fill="#333340" fill-opacity="1"><g transform="translate(54.17382, 244.633515)"><g><path d="M 15.40625 -17.027344 L 15.40625 -3.941406 C 15.40625 -0.308594 13.421875 0 13.421875 0 L 20.582031 0 C 20.582031 0 18.601562 -0.257812 18.601562 -3.941406 L 18.601562 -18.109375 L 28.851562 -32.972656 C 31.402344 -36.683594 33.542969 -36.941406 33.542969 -36.941406 L 28.105469 -36.941406 C 28.105469 -36.941406 29.859375 -36.605469 27.359375 -33 L 17.542969 -18.730469 L 8.679688 -33 C 6.441406 -36.605469 8.191406 -36.941406 8.191406 -36.941406 L 1.054688 -36.941406 C 1.054688 -36.941406 3.167969 -36.683594 5.488281 -32.972656 Z M 15.40625 -17.027344 "/></g></g></g><g fill="#333340" fill-opacity="1"><g transform="translate(88.768798, 244.633515)"><g><path d="M 8.9375 -36.941406 L 1.054688 -36.941406 C 1.054688 -36.941406 3.015625 -36.605469 3.015625 -33 L 3.015625 -3.941406 C 3.015625 -0.308594 1.054688 0 1.054688 0 L 6.492188 0 C 6.492188 0 4.535156 -0.257812 4.507812 -3.941406 L 4.507812 -32.972656 C 4.507812 -33.722656 4.609375 -34.339844 4.738281 -34.828125 C 5.125 -34.339844 5.539062 -33.722656 5.949219 -33 L 24.191406 0 L 25.683594 0 L 25.683594 -32.972656 C 25.710938 -36.683594 27.667969 -36.941406 27.667969 -36.941406 L 22.230469 -36.941406 C 22.230469 -36.941406 24.214844 -36.605469 24.214844 -33 L 24.214844 -5.71875 L 9.144531 -32.972656 C 7.109375 -36.683594 8.9375 -36.941406 8.9375 -36.941406 Z M 8.9375 -36.941406 "/></g></g></g><g fill="#333340" fill-opacity="1"><g transform="translate(117.516375, 244.633515)"><g><path d="M 31.894531 -8.9375 C 31.171875 -7.597656 27.125 -1.804688 19.039062 -1.804688 C 10.972656 -1.804688 4.40625 -9.324219 4.40625 -18.574219 C 4.40625 -27.847656 10.972656 -35.371094 19.039062 -35.371094 C 25.503906 -35.371094 29.496094 -31.96875 28.800781 -28.105469 L 32.871094 -31.6875 C 30.914062 -32.535156 27.101562 -36.941406 19.269531 -36.941406 C 9.222656 -36.941406 1.054688 -28.699219 1.054688 -18.523438 C 1.054688 -8.371094 9.222656 -0.101562 19.269531 -0.101562 C 26.867188 -0.101562 31.636719 -5.847656 31.894531 -8.9375 Z M 31.894531 -8.9375 "/></g></g></g><g fill="#333340" fill-opacity="1"><g transform="translate(151.441607, 244.633515)"><g/></g></g><g fill="#333340" fill-opacity="1"><g transform="translate(164.681979, 244.633515)"><g><path d="M 28.851562 -10.304688 C 28.699219 -6.828125 25.476562 -1.597656 16.488281 -1.597656 C 7.496094 -1.597656 4.996094 -11.980469 4.996094 -11.980469 L 1.054688 -9.066406 C 1.054688 -9.066406 4.84375 0 16.410156 0 C 29.238281 0 32.460938 -5.925781 32.640625 -10.355469 C 33.128906 -22.128906 5.746094 -19.167969 6.132812 -28.183594 C 6.3125 -32.769531 10.125 -35.652344 16.898438 -35.652344 C 24.960938 -35.652344 26.714844 -29.960938 26.714844 -29.960938 L 29.652344 -33.386719 C 29.652344 -33.386719 24.320312 -36.941406 16.949219 -36.941406 C 9.582031 -36.941406 3.503906 -33.566406 3.246094 -27.796875 C 2.78125 -16.566406 29.238281 -19.992188 28.851562 -10.304688 Z M 28.851562 -10.304688 "/></g></g></g><g fill="#333340" fill-opacity="1"><g transform="translate(198.864805, 244.633515)"><g><path d="M 18.160156 -36.917969 L 1.054688 -36.941406 C 1.054688 -36.941406 3.039062 -36.605469 3.039062 -33 L 3.039062 -3.941406 C 3.039062 -0.308594 1.054688 0 1.054688 0 L 8.191406 0 C 8.191406 0 6.234375 -0.257812 6.207031 -3.941406 L 6.207031 -13.449219 L 11.667969 -13.449219 C 28.699219 -13.449219 33.078125 -18.804688 33.078125 -25.167969 C 33.078125 -32.71875 26.535156 -36.917969 18.160156 -36.917969 Z M 11.667969 -14.863281 L 6.207031 -14.863281 L 6.207031 -32.972656 C 6.207031 -34.003906 6.335938 -35.265625 7.574219 -35.265625 L 18.160156 -35.320312 C 24.757812 -35.320312 29.625 -31.09375 29.625 -25.324219 C 29.625 -19.65625 25.117188 -15.019531 11.667969 -14.863281 Z M 11.667969 -14.863281 "/></g></g></g><g fill="#333340" fill-opacity="1"><g transform="translate(232.996113, 244.633515)"><g><path d="M 6.207031 -14.015625 L 25.402344 -14.015625 L 25.402344 -3.941406 C 25.402344 -0.308594 23.417969 0 23.417969 0 L 30.554688 0 C 30.554688 0 28.59375 -0.257812 28.59375 -3.941406 L 28.59375 -32.972656 C 28.59375 -36.683594 30.554688 -36.941406 30.554688 -36.941406 L 23.417969 -36.941406 C 23.417969 -36.941406 25.402344 -36.605469 25.402344 -33 L 25.402344 -14.96875 L 6.207031 -14.96875 L 6.207031 -32.972656 C 6.234375 -36.683594 8.191406 -36.941406 8.191406 -36.941406 L 1.054688 -36.941406 C 1.054688 -36.941406 3.015625 -36.605469 3.015625 -33 L 3.015625 -3.941406 C 3.015625 -0.308594 1.054688 0 1.054688 0 L 8.191406 0 C 8.191406 0 6.234375 -0.257812 6.207031 -3.941406 Z M 6.207031 -14.015625 "/></g></g></g><g fill="#333340" fill-opacity="1"><g transform="translate(264.602992, 244.633515)"><g><path d="M 17.902344 -18.289062 L 17.902344 -26.042969 C 17.902344 -26.042969 16.949219 -22.566406 8.914062 -22.566406 L 6.207031 -22.566406 L 6.207031 -32.972656 C 6.207031 -34.003906 6.183594 -35.320312 7.882812 -35.320312 C 7.882812 -35.320312 9.761719 -35.320312 16.4375 -35.320312 C 25.863281 -35.320312 26.996094 -31.839844 26.996094 -31.839844 L 26.996094 -36.917969 L 1.054688 -36.941406 C 1.054688 -36.941406 3.015625 -36.605469 3.015625 -33 L 3.015625 -3.941406 C 3.015625 -0.308594 1.054688 0 1.054688 0 L 26.996094 0 L 26.996094 -5.074219 C 26.996094 -5.074219 25.863281 -1.597656 16.4375 -1.597656 C 9.761719 -1.597656 7.882812 -1.597656 7.882812 -1.597656 C 6.3125 -1.597656 6.207031 -2.910156 6.207031 -3.941406 L 6.207031 -21.742188 L 8.914062 -21.769531 C 16.949219 -21.769531 17.902344 -18.289062 17.902344 -18.289062 Z M 17.902344 -18.289062 "/></g></g></g><g fill="#333340" fill-opacity="1"><g transform="translate(292.680822, 244.633515)"><g><path d="M 26.792969 -3.941406 L 20.066406 -13.988281 C 30.242188 -15.507812 33.179688 -20.015625 33.179688 -25.167969 C 33.179688 -32.71875 26.535156 -36.917969 18.160156 -36.917969 L 1.054688 -36.941406 C 1.054688 -36.941406 3.039062 -36.605469 3.039062 -33 L 3.039062 -3.941406 C 3.039062 -0.308594 1.054688 0 1.054688 0 L 8.191406 0 C 8.191406 0 6.234375 -0.257812 6.207031 -3.941406 L 6.207031 -13.449219 L 11.667969 -13.449219 C 13.652344 -13.449219 15.457031 -13.5 17.105469 -13.652344 L 23.597656 -3.941406 C 26.042969 -0.257812 24.265625 0 24.265625 0 L 31.402344 0 C 31.402344 0 29.238281 -0.308594 26.792969 -3.941406 Z M 11.667969 -14.863281 L 6.207031 -14.863281 L 6.207031 -32.972656 C 6.207031 -34.003906 6.390625 -35.320312 8.011719 -35.320312 L 18.160156 -35.320312 C 24.757812 -35.320312 29.625 -31.09375 29.625 -25.324219 C 29.625 -19.65625 25.117188 -15.019531 11.667969 -14.863281 Z M 11.667969 -14.863281 "/></g></g></g><g fill="#333340" fill-opacity="1"><g transform="translate(326.915184, 244.633515)"><g><path d="M 17.902344 -18.289062 L 17.902344 -26.042969 C 17.902344 -26.042969 16.949219 -22.566406 8.914062 -22.566406 L 6.207031 -22.566406 L 6.207031 -32.972656 C 6.207031 -34.003906 6.183594 -35.320312 7.882812 -35.320312 C 7.882812 -35.320312 9.761719 -35.320312 16.4375 -35.320312 C 25.863281 -35.320312 26.996094 -31.839844 26.996094 -31.839844 L 26.996094 -36.917969 L 1.054688 -36.941406 C 1.054688 -36.941406 3.015625 -36.605469 3.015625 -33 L 3.015625 -3.941406 C 3.015625 -0.308594 1.054688 0 1.054688 0 L 26.996094 0 L 26.996094 -5.074219 C 26.996094 -5.074219 25.863281 -1.597656 16.4375 -1.597656 C 9.761719 -1.597656 7.882812 -1.597656 7.882812 -1.597656 C 6.3125 -1.597656 6.207031 -2.910156 6.207031 -3.941406 L 6.207031 -21.742188 L 8.914062 -21.769531 C 16.949219 -21.769531 17.902344 -18.289062 17.902344 -18.289062 Z M 17.902344 -18.289062 "/></g></g></g><path stroke-linecap="round" transform="matrix(1.041439, 0, 0, 1.041439, 72.931413, 254.255374)" fill="none" stroke-linejoin="miter" d="M 0.500953 0.501201 L 219.518758 0.501201 " stroke="#333340" stroke-width="1" stroke-opacity="1" stroke-miterlimit="4"/><path stroke-linecap="round" transform="matrix(1.041439, 0, 0, 1.041439, 98.967392, 265.392873)" fill="none" stroke-linejoin="miter" d="M 0.500163 0.500451 L 152.854668 0.500451 " stroke="#333340" stroke-width="1" stroke-opacity="1" stroke-miterlimit="4"/><path stroke-linecap="round" transform="matrix(1.041439, 0, 0, 1.041439, 125.00336, 276.675099)" fill="none" stroke-linejoin="miter" d="M 0.499383 0.499514 L 89.525065 0.499514 " stroke="#333340" stroke-width="1" stroke-opacity="1" stroke-miterlimit="4"/></svg>